<?xml version="1.0"?>
<svg xmlns="http://www.w3.org/2000/svg" xmlns:xlink="http://www.w3.org/1999/xlink" xmlns:svgjs="http://svgjs.com/svgjs" version="1.1" width="512" height="512" x="0" y="0" viewBox="0 0 64 64" style="enable-background:new 0 0 512 512" xml:space="preserve" class=""><g><link type="text/css" rel="stylesheet" id="dark-mode-general-link"/><link type="text/css" rel="stylesheet" id="dark-mode-custom-link"/><style type="text/css" id="dark-mode-custom-style"/><path xmlns="http://www.w3.org/2000/svg" d="m27.015 7 4.985 2.848 4.985-2.848-4.985-2.848z" fill="#000000" data-original="#000000" style="" class=""/><path xmlns="http://www.w3.org/2000/svg" d="m16 42.723-5 2.857v5.697l5-2.857z" fill="#000000" data-original="#000000" style="" class=""/><path xmlns="http://www.w3.org/2000/svg" d="m14.985 41-4.985-2.848-4.985 2.848 4.985 2.848z" fill="#000000" data-original="#000000" style="" class=""/><path xmlns="http://www.w3.org/2000/svg" d="m38 14.42v-5.697l-5 2.857v5.697z" fill="#000000" data-original="#000000" style="" class=""/><path xmlns="http://www.w3.org/2000/svg" d="m27.015 28 4.985 2.848 4.985-2.848-4.985-2.848z" fill="#000000" data-original="#000000" style="" class=""/><path xmlns="http://www.w3.org/2000/svg" d="m16 22.42v-5.697l-5 2.857v5.697z" fill="#000000" data-original="#000000" style="" class=""/><path xmlns="http://www.w3.org/2000/svg" d="m4 22.42 5 2.857v-5.697l-5-2.857z" fill="#000000" data-original="#000000" style="" class=""/><path xmlns="http://www.w3.org/2000/svg" d="m5.015 15 4.985 2.848 4.985-2.848-4.985-2.848z" fill="#000000" data-original="#000000" style="" class=""/><path xmlns="http://www.w3.org/2000/svg" d="m38 35.42v-5.697l-5 2.857v5.697z" fill="#000000" data-original="#000000" style="" class=""/><path xmlns="http://www.w3.org/2000/svg" d="m9 45.58-5-2.857v5.697l5 2.857z" fill="#000000" data-original="#000000" style="" class=""/><path xmlns="http://www.w3.org/2000/svg" d="m53 45.58-5-2.857v5.697l5 2.857z" fill="#000000" data-original="#000000" style="" class=""/><path xmlns="http://www.w3.org/2000/svg" d="m60 22.42v-5.697l-5 2.857v5.697z" fill="#000000" data-original="#000000" style="" class=""/><path xmlns="http://www.w3.org/2000/svg" d="m48 22.42 5 2.857v-5.697l-5-2.857z" fill="#000000" data-original="#000000" style="" class=""/><path xmlns="http://www.w3.org/2000/svg" d="m60 42.723-5 2.857v5.697l5-2.857z" fill="#000000" data-original="#000000" style="" class=""/><path xmlns="http://www.w3.org/2000/svg" d="m58.985 41-4.985-2.848-4.985 2.848 4.985 2.848z" fill="#000000" data-original="#000000" style="" class=""/><path xmlns="http://www.w3.org/2000/svg" d="m36.985 49-4.985-2.848-4.985 2.848 4.985 2.848z" fill="#000000" data-original="#000000" style="" class=""/><path xmlns="http://www.w3.org/2000/svg" d="m31 53.58-5-2.857v5.697l5 2.857z" fill="#000000" data-original="#000000" style="" class=""/><path xmlns="http://www.w3.org/2000/svg" d="m26 14.42 5 2.857v-5.697l-5-2.857z" fill="#000000" data-original="#000000" style="" class=""/><path xmlns="http://www.w3.org/2000/svg" d="m26 35.42 5 2.857v-5.697l-5-2.857z" fill="#000000" data-original="#000000" style="" class=""/><path xmlns="http://www.w3.org/2000/svg" d="m49.015 15 4.985 2.848 4.985-2.848-4.985-2.848z" fill="#000000" data-original="#000000" style="" class=""/><path xmlns="http://www.w3.org/2000/svg" d="m38 50.723-5 2.857v5.697l5-2.857z" fill="#000000" data-original="#000000" style="" class=""/><path xmlns="http://www.w3.org/2000/svg" d="m32 20-1-.571v1.571 2.571l1-.571 1 .571v-4.142z" fill="#000000" data-original="#000000" style="" class=""/><path xmlns="http://www.w3.org/2000/svg" d="m18 17.382v2.236l6-3.635v-2.303z" fill="#000000" data-original="#000000" style="" class=""/><path xmlns="http://www.w3.org/2000/svg" d="m46 17.382v2.236l-6-3.635v-2.303z" fill="#000000" data-original="#000000" style="" class=""/><path xmlns="http://www.w3.org/2000/svg" d="m18 50.618v-2.236l6 3.635v2.303z" fill="#000000" data-original="#000000" style="" class=""/><path xmlns="http://www.w3.org/2000/svg" d="m46 50.618v-2.236l-6 3.635v2.303z" fill="#000000" data-original="#000000" style="" class=""/><path xmlns="http://www.w3.org/2000/svg" d="m32 41-1-.571v1.571 2.571l1-.571 1 .571v-4.142z" fill="#000000" data-original="#000000" style="" class=""/><path xmlns="http://www.w3.org/2000/svg" d="m54 28-1-.571v1.571 7.571l1-.571 1 .571v-9.142z" fill="#000000" data-original="#000000" style="" class=""/><path xmlns="http://www.w3.org/2000/svg" d="m10 28 1-.571v1.571 7.571l-1-.571-1 .571v-9.142z" fill="#000000" data-original="#000000" style="" class=""/></g></svg>
